<svg width="22" height="22" viewBox="0 0 22 22" fill="none" xmlns="http://www.w3.org/2000/svg">
<mask id="mask0_549_316" style="mask-type:alpha" maskUnits="userSpaceOnUse" x="0" y="0" width="22" height="22">
<rect width="22" height="22" fill="#D9D9D9"/>
</mask>
<g mask="url(#mask0_549_316)">
<path d="M7.33325 10.083C7.59297 10.083 7.81084 9.99501 7.98684 9.81901C8.16222 9.64362 8.24992 9.42606 8.24992 9.16634C8.24992 8.90662 8.16222 8.68876 7.98684 8.51276C7.81084 8.33737 7.59297 8.24967 7.33325 8.24967C7.07353 8.24967 6.85567 8.33737 6.67967 8.51276C6.50428 8.68876 6.41659 8.90662 6.41659 9.16634C6.41659 9.42606 6.50428 9.64362 6.67967 9.81901C6.85567 9.99501 7.07353 10.083 7.33325 10.083ZM10.9999 10.083C11.2596 10.083 11.4775 9.99501 11.6535 9.81901C11.8289 9.64362 11.9166 9.42606 11.9166 9.16634C11.9166 8.90662 11.8289 8.68876 11.6535 8.51276C11.4775 8.33737 11.2596 8.24967 10.9999 8.24967C10.7402 8.24967 10.5226 8.33737 10.3473 8.51276C10.1713 8.68876 10.0833 8.90662 10.0833 9.16634C10.0833 9.42606 10.1713 9.64362 10.3473 9.81901C10.5226 9.99501 10.7402 10.083 10.9999 10.083ZM14.6666 10.083C14.9263 10.083 15.1439 9.99501 15.3193 9.81901C15.4953 9.64362 15.5833 9.42606 15.5833 9.16634C15.5833 8.90662 15.4953 8.68876 15.3193 8.51276C15.1439 8.33737 14.9263 8.24967 14.6666 8.24967C14.4069 8.24967 14.1893 8.33737 14.0139 8.51276C13.8379 8.68876 13.7499 8.90662 13.7499 9.16634C13.7499 9.42606 13.8379 9.64362 14.0139 9.81901C14.1893 9.99501 14.4069 10.083 14.6666 10.083ZM1.83325 20.1663V3.66634C1.83325 3.16217 2.01292 2.73042 2.37225 2.37109C2.73097 2.01237 3.16242 1.83301 3.66659 1.83301H18.3333C18.8374 1.83301 19.2692 2.01237 19.6285 2.37109C19.9872 2.73042 20.1666 3.16217 20.1666 3.66634V14.6663C20.1666 15.1705 19.9872 15.6023 19.6285 15.9616C19.2692 16.3203 18.8374 16.4997 18.3333 16.4997H5.49992L1.83325 20.1663ZM3.66659 15.7434L4.74367 14.6663H18.3333V3.66634H3.66659V15.7434Z" fill="#848484"/>
</g>
</svg>
